<svg xmlns="http://www.w3.org/2000/svg" id="Regular" viewBox="0 0 24 24"><defs><style>.cls-1{fill:none;stroke:currentColor;stroke-linecap:round;stroke-linejoin:round;stroke-width:1.5px}</style></defs><title>party-confetti</title><ellipse cx="11.531" cy="12.469" class="cls-1" rx="2.625" ry="5.25" transform="translate(-5.44 11.806) rotate(-45)"/><path d="M7.4,9.7.888,21.121a1.5,1.5,0,0,0,1.991,1.991L14.3,16.605" class="cls-1"/><path d="M15.773,7.7a.375.375,0,0,1,0,.531" class="cls-1"/><path d="M15.243,7.7a.375.375,0,0,1,.53,0" class="cls-1"/><path d="M15.243,8.227a.377.377,0,0,1,0-.531" class="cls-1"/><path d="M15.773,8.227a.375.375,0,0,1-.53,0" class="cls-1"/><path d="M20.016,3.454a.374.374,0,0,1,0,.53" class="cls-1"/><path d="M19.486,3.454a.374.374,0,0,1,.53,0" class="cls-1"/><path d="M19.486,3.984a.374.374,0,0,1,0-.53" class="cls-1"/><path d="M20.016,3.984a.375.375,0,0,1-.53,0" class="cls-1"/><path d="M20.016,14.06a.375.375,0,0,1,0,.531" class="cls-1"/><path d="M19.486,14.06a.375.375,0,0,1,.53,0" class="cls-1"/><path d="M19.486,14.591a.375.375,0,0,1,0-.531" class="cls-1"/><path d="M20.016,14.591a.375.375,0,0,1-.53,0" class="cls-1"/><path d="M8.349,4.514a.377.377,0,0,1,0,.531" class="cls-1"/><path d="M7.819,4.514a.375.375,0,0,1,.53,0" class="cls-1"/><path d="M7.819,5.045a.375.375,0,0,1,0-.531" class="cls-1"/><path d="M8.349,5.045a.375.375,0,0,1-.53,0" class="cls-1"/><path d="M12.857.75a13.836,13.836,0,0,1-.531,5.62" class="cls-1"/><line x1="16.569" x2="16.039" y1="2.128" y2="4.779" class="cls-1"/><path d="M23.25,11.143a13.836,13.836,0,0,0-5.62.531" class="cls-1"/><line x1="21.872" x2="19.221" y1="7.431" y2="7.961" class="cls-1"/></svg>